<svg id="visual" viewBox="0 0 960 540" width="960" height="540" xmlns="http://www.w3.org/2000/svg" xmlns:xlink="http://www.w3.org/1999/xlink" version="1.1"><rect x="0" y="0" width="960" height="540" fill="#001521"></rect><g transform="translate(520.4419063220757 274.3914101027293)"><path d="M99.7 -131.3C127.4 -95.6 146.8 -62.4 153.5 -26.7C160.2 9 154.1 47.2 140.4 90.6C126.8 134.1 105.5 182.6 71 195.1C36.6 207.7 -10.9 184.2 -63.9 168.2C-116.9 152.1 -175.4 143.6 -207.5 109.4C-239.6 75.2 -245.4 15.5 -225.9 -30.3C-206.4 -76 -161.7 -107.7 -119.8 -141C-78 -174.3 -39 -209.1 -1.5 -207.4C36 -205.6 72 -167.1 99.7 -131.3" fill="#002233"></path></g></svg>